<?xml version="1.0" encoding="UTF-8"?>
<svg id="Layer_1" xmlns="http://www.w3.org/2000/svg" version="1.1" viewBox="0 0 971.1 315">
  <!-- Generator: Adobe Illustrator 29.2.1, SVG Export Plug-In . SVG Version: 2.1.0 Build 116)  -->
  <defs>
    <style>
      .st0 {
        fill: #8b4c00;
      }

      .st0, .st1, .st2, .st3 {
        stroke: #000;
        stroke-miterlimit: 10;
        stroke-width: 5px;
      }

      .st4 {
        fill: #adff73;
      }

      .st1, .st5 {
        fill: #d29263;
      }

      .st2 {
        fill: #2e1000;
      }

      .st3 {
        fill: #5fe2e0;
      }
    </style>
  </defs>
  <g>
    <g>
      <polygon class="st5" points="118.5 238.5 85.2 129.3 219 171.3 219 271.1 118.5 238.5"/>
      <path d="M89,133.1l127.5,40.1v94.5l-96-31.1-31.5-103.4M81.5,125.5l35,115,105,34v-105l-140-44h0Z"/>
    </g>
    <g>
      <path class="st5" d="M100.8,127.6c-8.3,0-14.7-1.3-19.1-3.9-2.8-1.7-8.2-8-12.7-31.5-2-10.5-3.1-20.6-3.5-24.9l139.6-32c.1,5.2.5,16.3,2.3,27.5,2.5,16.1,6.6,26.4,12.5,30.8-7.7,3.3-22.9,9.6-40.4,15.8-33.5,11.9-60.7,18.1-78.7,18.1h0Z"/>
      <path d="M202.8,38.5c.2,5.9.8,15.3,2.2,24.8,1.4,9.3,3.4,16.8,6,22.3,1.3,2.9,2.8,5.3,4.5,7.2-22.2,9.3-80.2,32.3-114.6,32.3s-13.8-1.2-17.8-3.5c-1.5-.9-6.9-5.7-11.5-29.8-1.7-8.9-2.7-17.5-3.2-22.5l134.5-30.8M207.7,32.2L62.9,65.4s4,52.5,17.6,60.5c5,3,12.1,4.2,20.3,4.2,44.6,0,125.7-36.6,125.7-36.6-19-1-18.8-61.3-18.8-61.3h0Z"/>
    </g>
    <g>
      <polygon class="st5" points="224 170.9 357.4 129 312.6 250.4 224 271 224 170.9"/>
      <path d="M353.3,132.9l-42.5,115.3-84.2,19.6v-95l126.8-39.9M361.5,125.1l-140,44v105l93-21.6,47-127.4h0Z"/>
    </g>
    <path class="st1" d="M362,125c0,.5-140-33.5-140-33.5v78"/>
    <path class="st1" d="M82,126c0,.5,139-34.5,139-34.5v78"/>
    <g>
      <path class="st5" d="M259.2,231.6c-8.3,0-14.7-1.3-19.1-3.9-2.8-1.7-8.2-8-12.7-31.5-2-10.6-3.1-20.8-3.5-25l136.2-42.4c.4,6,1.5,19.4,3.9,32.8,3.5,19.3,8.2,31.2,14.4,36-7.7,3.3-22.9,9.6-40.6,15.9-33.5,11.9-60.7,18.1-78.7,18.1h0Z"/>
      <path d="M357.9,132.2c.5,6.9,1.6,18.3,3.7,29.9,2,10.8,4.4,19.5,7.2,25.9,1.6,3.6,3.4,6.6,5.3,8.9-22,9.3-80.3,32.4-114.9,32.4s-13.8-1.2-17.8-3.5c-1.5-.9-6.9-5.7-11.5-29.8-1.8-9.1-2.8-17.9-3.3-22.8l131.2-40.8M362.5,125.5l-141.2,43.9s4,52.4,17.6,60.5c5,3,12.1,4.2,20.3,4.2,44.6,0,125.7-36.6,125.7-36.6-19-1-22.4-72-22.4-72h0Z"/>
    </g>
    <polyline class="st0" points="223.5 122.2 295.9 148.9 223.4 169.2"/>
    <path class="st2" d="M221,169.5"/>
    <path class="st2" d="M220.5,125.7"/>
    <g>
      <path class="st5" d="M65.7,178l17.3-48.4c100.2,31.3,127.4,39.5,134.9,41.8-1.2,4.9-4.5,18.4-13.4,56.3l-138.9-49.6h0Z"/>
      <path d="M84.6,132.7c10.6,3.3,37.8,11.8,64.8,20.1,41.1,12.8,58.2,18,65.6,20.2-1.6,6.5-4.9,20.5-12.1,51.2l-133.9-47.9,15.7-43.8M81.5,126.5l-19,53,143.9,51.4s14.2-60.7,14.6-61.3h0c-1.1,0-139.5-43.1-139.5-43.1h0ZM221,169.6h0Z"/>
    </g>
    <polyline class="st0" points="219.1 121.5 146.5 147.5 218.8 168.5"/>
  </g>
  <g>
    <path class="st4" d="M337.6,135.4c-2.1,0-5.2-1.3-8.5-3.6l-6-4.2c1-2.2,2.9-4.2,4.8-6.3,1-1,2-2.1,2.9-3.3l3.1-3.8-4.9-.2c-.5,0-1,0-1.5,0-10.4,0-21.3,5.5-28,13.9-1,1-2.1,1.5-3.3,1.5s-.4,0-.6,0c-1.4-.2-2.6-1.1-3.3-2.3-.3-.8-.4-1.6-.4-2.4,0-.8.2-1.5.5-2.4.5-1.5,1.5-2.9,2.6-4.4,1.6-2.2,3.3-4.7,3.6-7.9,3.4-.3,4-2.4,4-3.6,0-3.4-2.4-6.6-4.6-9.4-1-1.3-2.6-3.4-2.7-4.3,0,0,0,0,0,0,.5-.3,1-.5,1.6-.5,2.2,0,5.2,2.7,8.1,5.4,3.2,3,6.9,6.3,11.2,7.6l10.1,3-9.1-8.5c-10.2-9.5-24.2-22.6-16.8-34,1.4-2.1,4.6-3.4,8.3-3.4s8.6,1.6,9.8,5h0c1.2,3.1,1.4,6.6,1.6,10.2.4,7.1.8,15.2,9.5,21l.3.2,2.9-4.1c-.2-.2-.4-.3-.6-.5-4.1-3.7-6.2-7.6-6.4-11.7-.4-9.1,8.3-18.6,16-27,.9-1,1.8-2,2.7-2.9.2,1.4,0,3-.1,4.8-.3,3.1-.6,6.6,1.8,9,1.5,1.5,3.2,2.3,5.1,2.3,4.2,0,7.7-3.8,11.5-7.8,1.8-1.9,3.5-3.8,5.3-5.2.2,8.7-1.1,17.5-9.4,21.4l-5.5,2.6,5.8,2c7.2,2.5,13.2,7.9,16.1,14.3,2.2,5,2.4,10.2.4,15h0c-.9,2.6-3.5,3.5-7.6,4.6-2.6.8-5.4,1.5-7.7,3.1-.9.5-1.5,1.3-1.8,2.4,0,.3-.1.6-.2.9-1-.3-2-.5-3-.5-6.3,0-10.6,5.9-14.5,12.2-.8,1.3-1.7,1.8-3.1,1.8h0ZM346.6,92.2c-2.1,1.3-4.4,2.6-6.6,3.3l1.5,4.8c2.8-.8,5.4-2.4,7.8-3.9l-2.6-4.2h0ZM325.3,134.7c-.7,0-1.4-.5-2-1.1-.8-.9-1.2-2.1-1-3.1,0-.4.1-.8.2-1.1l2.9,5.3h0Z"/>
    <path d="M341.7,59.1c-.2,3,.1,6.2,2.7,8.7,2.5,2.5,5.1,3,6.9,3,5.2,0,9.3-4.4,13.3-8.6.2-.3.5-.5.8-.8-.6,6.2-2.8,10.6-7.8,13l-11.1,5.2,11.5,4.1c6.5,2.3,12.1,7.3,14.7,13,1.4,3,2.5,7.8.4,13h0c0,.1,0,.2,0,.2-.5,1.3-2.2,1.9-5.9,3-2.7.8-5.7,1.6-8.4,3.4-1,.6-1.8,1.5-2.3,2.6-.4,0-.8,0-1.2,0-7.5,0-12.4,6.4-16.6,13.4h0s0,0,0,0c-.3.5-.5.6-.9.6-1.6,0-4.2-1.2-7.1-3.2l-4.2-2.9c.9-1.2,2-2.5,3.3-3.8,1-1.1,2-2.2,3-3.4l6.1-7.6-5-.2-13.5-12.6-1.4-1.3c-12-11.2-22.2-21.9-16.4-30.8.9-1.4,3.4-2.3,6.2-2.3s6.8,1.4,7.4,3.3h0c0,.1,0,.2,0,.2,1.1,2.6,1.2,5.8,1.4,9.3.4,7.4.9,16.5,10.5,23,0,0,.1,0,.2.1,2.5,1.9,5.4,2.9,8.6,2.9s3.4-.3,5.2-.9c3.1-.9,5.8-2.6,8.4-4.1l-5.3-8.5c-2,1.2-4,2.4-6,3.1-.7.2-1.4.3-2,.3-1,0-2-.3-3.1-.9-.1,0-.2-.2-.3-.3h0s0,0,0,0c-3.6-3.2-5.4-6.5-5.5-10-.3-7.4,6.6-15.6,13.4-23.1M301.9,98c.6.5,1.1,1,1.5,1.4,3.4,3.1,7.3,6.7,12.2,8.1l13.3,3.9c-.5,0-1,0-1.5,0-11.1,0-22.8,5.8-29.9,14.8-.5.5-.9.7-1.4.7s-.2,0-.2,0c-.6,0-1.1-.4-1.4-.9-.1-.4-.2-.8-.2-1.2,0-.5.1-1,.4-1.6h0s0,0,0,0c.4-1.1,1.3-2.4,2.2-3.7,1.4-2,3-4.3,3.8-7.2,4.1-1.3,4.3-4.9,4.3-5.8,0-3.2-1.5-5.9-3.2-8.4M345.1,47.9c-11.3,13.2-33.2,31.1-14.6,48,.3.2.5.5.8.7,2,1.3,4,1.9,6,1.9s2.3-.2,3.5-.5c2.6-.8,5-2.2,7.2-3.6-2.3,1.4-4.7,2.9-7.2,3.6-1.2.4-2.5.6-3.8.6-1.9,0-3.8-.5-5.7-2,0,0-.2-.1-.2-.2-11.8-7.9-6.2-20.5-10.1-30-1.6-4.4-6.9-6.6-12.1-6.6s-8.4,1.5-10.4,4.5c-9,13.7,7.9,28.5,18.6,38.5-7.7-2.3-13.8-13.1-20-13.1s-2,.3-3.1,1c-4.5,3.2,6.2,10,6.2,15.8s-1.1,1.2-2.5,1.2-1,0-1.5,0c-1,0-2,0-2.8.4.5-.1.9-.2,1.3-.2,1.1,0,1.9.5,1.5,1.3,0,4.7-4.5,7.9-6.1,12.3-.4,1-.7,2.1-.7,3.2s.1,2.3.6,3.5c1.1,2.1,3.1,3.4,5.2,3.8.3,0,.7,0,1,0,1.8,0,3.7-.8,5.2-2.4,5.8-7.4,15.9-13.1,26.1-13,.5,0,.9,0,1.4,0-3.4,4.2-8.4,7.9-9,13.7-.5,3.4,2.3,7.1,5.8,7.1s1.8-.2,2.7-.8c.6-.5,0-1.6-.6-2.6,2.8,2,6.6,4.1,10,4.1s3.9-.8,5.2-3c3.5-5.9,7.3-11,12.3-11s4.6,1,7.3,3.3c0,0-.5-.6-1.1-1.7-1.1-1.7-1.1-4.3,0-4.9,5.1-3.7,14.1-2.6,16.3-9,5.6-13.7-4.5-27.9-18-32.7,11.3-5.3,11.3-17.9,10.7-27.9-7,2.6-13.3,14.8-19.1,14.8s-2.3-.5-3.4-1.6c-3.4-3.2,1.7-11.6-2.8-16.3h0Z"/>
  </g>
  <path class="st3" d="M434.8,132.3c-3.7-2.5-6.9-5.4-9.7-8.5-2.8-3.1-5.1-6.5-7-10.1-1.9-3.6-3.4-7.4-4.4-11.4-1-4-1.7-8.2-1.9-12.5.8-1.3,1.8-2.3,3-3.2,1.2-.9,2.5-1.6,3.9-2.2,1.4-.6,2.9-1,4.4-1.3,1.5-.3,3-.4,4.3-.4,2.3,0,4.2.2,5.9.7s3.2,1,4.6,1.8c.2.6.6,1.5,1,2.8.4,1.3.9,2.6,1.3,4.1s.9,2.9,1.3,4.3.7,2.6,1,3.5l-2.2,9.9c0,.4-.2.8-.3,1.3s-.2.9-.2,1.3.1.9.4,1.2.7.5,1.4.5c.2-.6.5-1.7.8-3.1s.7-3.1,1.1-4.9.8-3.8,1.3-5.9.9-4.1,1.3-6,.8-3.7,1.1-5.3c.4-1.6.6-2.9.9-3.8,1.3-.6,2.8-1.2,4.6-1.6,1.8-.4,3.7-.6,5.8-.6s4.4.3,6.3.9c1.9.6,3.5,1.5,4.9,2.6s2.4,2.6,3.1,4.3,1.1,3.7,1.1,5.9c0,3.6-.5,6.9-1.5,10.1s-2.3,6.2-3.8,8.9c-1.6,2.8-3.3,5.3-5.3,7.6s-3.9,4.4-5.8,6.1v16.8c-1.4.9-2.8,1.6-4,2.2-1.2.6-2.5,1-3.6,1.3-1.2.3-2.3.5-3.3.6-1.1.1-2.1.1-3.2.1-2.2,0-4.1-.2-5.9-.6-1.8-.4-3.3-1-4.6-1.9s-2.3-2-3-3.3c-.7-1.3-1.1-2.9-1.1-4.7v-9c.2.2.5.5.9.8s.8.7,1.2,1c.4.3.9.6,1.3.9s.8.4,1.1.4.7-.1,1-.4.4-.6.4-1.2h0Z"/>
  <path class="st3" d="M499.9,150.9c-3.8,0-7.4-.6-10.8-1.8s-6.3-3.1-8.7-5.5c-2.5-2.5-4.4-5.6-5.9-9.3-1.4-3.7-2.2-8-2.2-13s.7-8.5,2-12.1c1.3-3.6,3.2-6.7,5.6-9.2,2.4-2.5,5.3-4.5,8.7-5.9s7.1-2,11.2-2,7.8.7,11.2,2.2c3.4,1.5,6.3,3.5,8.7,6.1,2.4,2.6,4.3,5.8,5.6,9.4,1.3,3.6,2,7.6,2,12s-.6,8.5-1.9,12.1c-1.2,3.6-3,6.7-5.4,9.2-2.4,2.5-5.2,4.5-8.6,5.8-3.4,1.4-7.2,2-11.5,2h0ZM498.7,129.9c.2.2.6.4,1,.4s1-.2,1.2-.6c.2-.4.3-1,.3-1.9v-7.3c0-1.5,0-2.8,0-3.9,0-1-.2-1.9-.3-2.6s-.4-1.1-.6-1.3-.5-.3-.9-.3-.5,0-.7.1-.3.2-.5.4c0,.5,0,1,.1,1.5,0,.5.1,1,.1,1.6,0,.6,0,1.3.1,2.1s0,1.8,0,2.9v8.9h0Z"/>
  <path class="st3" d="M560.3,147.3c-.4.3-.9.7-1.4,1s-1.2.7-1.9.9-1.6.5-2.7.7-2.2.3-3.5.3-3-.1-4.6-.4-3.1-.7-4.6-1.4c-1.5-.7-2.9-1.5-4.2-2.7-1.3-1.1-2.5-2.5-3.5-4.2-1-1.7-1.8-3.7-2.4-6-.6-2.3-.9-5-.9-8v-12.8c-.7-1.3-1.3-2.7-1.8-4.4-.5-1.6-.7-3.5-.7-5.6s0-1.9.2-2.9.3-2,.5-2.9.5-1.9.9-2.8c.4-.9.8-1.8,1.3-2.5h10.8c1.9,0,3.7.2,5.2.7s3,1.2,4.1,2.2c1.2,1,2,2.2,2.7,3.7.6,1.5,1,3.3,1,5.4v16.5c0,1.9.2,3.2.5,3.9.3.7.8,1,1.3,1s.6,0,.8-.1.3-.2.5-.4c-.2-.6-.3-1.3-.4-2.1s-.1-1.9-.1-3.2v-25.1c.6-.4,1.3-.8,2.1-1.1.8-.4,1.7-.7,2.7-1s2.2-.6,3.4-.8,2.7-.3,4.3-.3c2.8,0,5.3.4,7.4,1.2,2.1.8,3.6,1.8,4.7,3v26.5c0,2.3.2,4.4.7,6s1.4,3,2.8,3.8c0,.3,0,.6,0,1v.9c0,2.6-.3,4.8-1,6.7-.7,1.9-1.6,3.4-2.8,4.6s-2.6,2.1-4.2,2.7-3.4.9-5.3.9-4.7-.6-6.8-1.7c-2.1-1.1-3.6-2.9-4.7-5.2-1.1,0-1.7.6-1.7,1.7s0,.8.3,1.2c.2.4.5.8.8,1.2h0Z"/>
  <path class="st3" d="M595.9,93.7c2,0,3.7.3,5.1,1,1.4.7,2.4,1.6,3.2,2.9-.4.5-.8,1-1.2,1.7-.4.7-.7,1.4-1,2-.3.7-.5,1.3-.7,1.9s-.2,1.1-.2,1.4.2.8.4,1.1.8.5,1.4.5c.6-2.5,1.5-4.6,2.6-6.3,1.1-1.7,2.4-3,3.9-4.1,1.5-1,3-1.7,4.7-2.2,1.7-.4,3.4-.6,5.1-.6s2.7,0,3.9.3,2.2.4,3.2.7,1.8.6,2.5,1,1.3.8,1.8,1.1c.5,1.4.9,2.9,1.1,4.5.2,1.6.3,3.2.3,4.7,0,2.8-.2,5-.7,6.9-.5,1.8-1,3.3-1.5,4.5-.5.3-1.2.5-2,.8-.8.3-1.7.5-2.6.7-.9.2-1.9.4-3,.5-1,.1-2.1.2-3.1.2s-2,0-2.9-.1-1.6-.2-2.3-.3-1.3-.2-1.9-.4c-.6-.1-1.2-.3-1.7-.4-.3.3-.4.7-.4,1.2s.3.9.9,1.1,1.7.6,3.3.9v25.6c-1.1.8-2.2,1.4-3.4,1.8s-2.3.8-3.4,1.1-2.1.4-3.1.5c-1,0-1.9.1-2.8.1-1.8,0-3.5-.2-5.2-.5-1.6-.4-3-.9-4.2-1.6s-2.1-1.7-2.8-2.8-1-2.5-1-4v-26.2c-1-1.4-1.7-3-2.2-4.8-.5-1.8-.7-3.7-.7-5.6s.2-3.4.7-5.4c.5-2,1.2-3.7,2.2-5.2h7.5,0Z"/>
  <path class="st3" d="M651.5,89.8c1.5-2.2,3.5-3.9,6-5.2s5.4-1.9,8.5-1.9,4.4.2,6.2.7,3.5,1.1,4.8,2.1c1.3.9,2.3,2,3.1,3.4s1.1,2.9,1.1,4.7c-.2,2-.3,4.1-.4,6.4,0,2.3-.2,4.6-.3,6.8s-.1,4.4-.2,6.4c0,2,0,3.8,0,5.2s0,1.7.3,2.5.7,1.1,1.4,1.1.6,0,1-.1c0-.5,0-1,0-1.5v-1.8c0-2.2,0-4.7,0-7.5,0-2.9.2-5.7.3-8.7s.3-5.7.5-8.4c.2-2.7.5-5,.7-6.8,1.4-.9,3.1-1.6,5-2.1s4-.8,6-.8,3.2.1,4.8.4,3.1.7,4.4,1.4,2.4,1.5,3.2,2.5,1.3,2.3,1.4,3.8c0,1.8-.3,3.9-.5,6.2-.3,2.3-.6,4.8-.9,7.3s-.7,5.2-1.1,7.9c-.4,2.7-.8,5.3-1.1,7.9.3.1.6.2.9.2.5,0,.9-.2,1.2-.5s.7-1.1.9-2.5c.6-3,1-6.1,1.5-9.1s.8-5.9,1.1-8.8.6-5.5.8-8,.3-4.9.4-7c1.2-.9,2.8-1.6,4.7-2.2,2-.6,4.5-.9,7.7-.9s4.1.3,5.8.9c1.7.6,3.2,1.5,4.4,2.6,1.2,1.1,2.2,2.5,2.8,4.1s1,3.4,1,5.4,0,1.7-.3,3.1c-.2,1.4-.5,3.1-.8,5-.3,1.9-.7,4-1.2,6.3-.5,2.3-1,4.6-1.5,7-.5,2.4-1.1,4.8-1.6,7.2s-1.1,4.6-1.7,6.7-1.1,3.9-1.6,5.6c-.5,1.7-1,3-1.4,4-.8,1.8-1.8,3.3-2.9,4.5s-2.5,2.2-4,3c-1.5.8-3.2,1.3-5.1,1.7-1.9.3-4,.5-6.2.5s-2,0-3.2-.2c-1.1-.1-2.2-.4-3.3-.6-1.1-.2-2.1-.5-3.1-.9-1-.3-1.8-.7-2.4-1.1-.4-.6-.7-1.3-1.1-2.1-.4-.8-.7-1.7-1.1-2.6s-.7-1.8-.9-2.6c-.3-.9-.5-1.6-.6-2.3-.8,0-1.3.2-1.5.6s-.4.9-.4,1.5.2,1.6.4,2.6.7,2.2,1.1,3.4c-1.9,1.6-4,2.7-6.4,3.3s-5.2,1-8.3,1-2.6,0-4-.1-2.7-.3-4-.6-2.5-.7-3.6-1.1c-1.1-.5-2.1-1.1-2.8-1.9-1.2-2.6-2.5-5.8-3.9-9.5-1.4-3.7-2.7-7.9-4-12.7-1.3-4.8-2.5-10-3.7-15.8-1.1-5.8-2-12-2.7-18.7h0Z"/>
  <path class="st3" d="M787.9,124.1c0,2.3.2,4.3.7,5.8.5,1.5,1.4,2.7,2.8,3.6,0,.3,0,.6,0,1v.9c0,2.6-.4,4.8-1.2,6.7-.8,1.9-1.8,3.4-3.1,4.6s-2.7,2.1-4.3,2.7c-1.6.6-3.2.9-4.9.9s-2.3-.1-3.5-.4c-1.1-.3-2.2-.7-3.2-1.3s-1.9-1.3-2.7-2.2c-.8-.9-1.4-2-1.9-3.2-.6,0-1,.1-1.2.5s-.4.7-.4,1.2.2,1,.4,1.5.7,1.1,1.3,1.7c-1,.8-2.5,1.3-4.2,1.7s-3.6.6-5.4.6c-3,0-5.7-.4-8.1-1.3-2.4-.9-4.5-2.1-6.3-3.8-1.8-1.7-3.1-3.7-4.1-6.1-1-2.4-1.5-5.1-1.5-8.3s.5-6,1.5-8.4c1-2.4,2.4-4.3,4.2-5.9,1.8-1.5,3.8-2.7,6.2-3.4,2.3-.8,4.8-1.1,7.4-1.1s2.2,0,3.1.1c.9,0,1.7.2,2.4.3.8.1,1.4.3,1.9.4,0-.3.2-.6.2-.9,0-.4-.2-.8-.7-1.1s-1-.5-1.7-.7c-.7-.1-1.5-.3-2.5-.3-1,0-1.9-.1-2.9-.1-2.2,0-4.5.2-6.7.8s-4.2,1.3-6,2.3c-.7-1.3-1.3-2.9-1.7-4.8-.4-1.9-.7-3.9-.7-5.9s0-1.9.2-2.9.3-1.8.7-2.6c.8-.4,1.9-.9,3.3-1.4s2.9-1,4.6-1.4c1.8-.4,3.7-.8,5.8-1.1,2.1-.3,4.4-.5,6.8-.5,4.2,0,7.9.5,11.1,1.5,3.2,1,5.8,2.4,7.9,4.2s3.7,4.1,4.7,6.8c1,2.7,1.6,5.8,1.6,9.1v10h0ZM762.5,126.6c-.8,0-1.3.2-1.6.6-.3.4-.5.8-.5,1.4s.2,1.1.7,1.4c.5.3,1,.4,1.7.4,1,0,1.8-.3,2.4-.8s.8-1.5.8-3h-3.6,0Z"/>
  <path class="st3" d="M805.4,93.7c2.3,0,4.2.4,5.8,1,1.5.7,2.8,1.6,3.7,2.7s1.6,2.4,2.1,3.8.7,2.9.9,4.4c0,.8-.2,1.8-.3,3.1-.1,1.3-.2,2.8-.4,4.4-.1,1.6-.2,3.3-.3,5.1s0,3.6,0,5.4v1.2c0,.4,0,.8,0,1.1.2.1.4.2.6.2s.3,0,.5,0c.5,0,.9-.2,1.1-.6.2-.4.3-1,.3-1.6,0-2.9,0-5.7.2-8.5.2-2.8.4-5.4.6-7.9.2-2.5.5-4.7.8-6.7s.6-3.6.9-4.9c1.4-1.1,3.1-1.9,4.9-2.3,1.8-.5,3.8-.7,6-.7s4.2.3,5.9.8,3.1,1.2,4.2,2.1,2,1.8,2.5,2.9c.6,1.1.9,2.2.9,3.4s0,.9-.2,2-.3,2.6-.6,4.5c-.3,1.9-.6,4-1,6.5s-.9,5.2-1.5,8c-.6,2.9-1.2,5.9-1.9,9-.7,3.1-1.5,6.3-2.3,9.5-1.4,5.4-3.2,9.7-5.2,13.1-2,3.4-4.3,6-6.7,7.9s-5,3.2-7.7,4c-2.7.7-5.4,1.1-8.1,1.1s-5.2-.4-7.2-1.1c-2-.7-3.7-1.7-5-3-1.3-1.2-2.3-2.7-3-4.3-.7-1.6-1-3.3-1-5.1s.2-3.4.7-5c.5-1.6,1.3-3.2,2.4-4.9.3,0,.6-.1,1.1-.1.4,0,.9,0,1.2,0,1,0,2,0,3,.2,1,.1,1.8.2,2.4.3l7.7,1.5c.4,0,.7.1,1.1.2.4,0,.7.1,1.1.1.6,0,1-.1,1.4-.4s.6-.8.6-1.7l-11.6-2.3c-1.2-.5-2.5-1.4-3.8-2.6-1.3-1.2-2.5-2.9-3.7-5.1-1.2-2.2-2.2-4.9-3.1-8.1s-1.7-7.1-2.1-11.6c-.9-1.2-1.7-2.7-2.3-4.4-.6-1.8-1-3.7-1-5.9s.2-3.7.7-5.6,1.2-3.6,2.3-5.2h12.6,0Z"/>
  <path class="st3" d="M860.4,100.2c-.6.4-1.3.6-2,.8-.7.2-1.7.2-2.7.2s-2.5-.2-3.7-.7-2.2-1.2-3.1-2.1-1.6-2-2.1-3.2c-.5-1.2-.8-2.7-.8-4.2s.3-3.7,1-5.2,1.5-2.8,2.6-3.8,2.4-1.8,3.8-2.3,3.1-.8,4.8-.8,4.1.4,5.8,1.2,3.1,1.9,4.2,3.3c1.2,1.4,2,3.1,2.6,5s.9,3.9.9,6.1-.4,5.5-1.2,7.7-1.9,4-3.3,5.5-3,2.5-4.7,3.3c-1.8.7-3.6,1.1-5.5,1.1s-2.3-.1-3.4-.4-1.9-.7-2.7-1.2c-.7-.6-1.3-1.2-1.7-2.1-.4-.8-.6-1.8-.6-2.9s0-1.4.3-2.1c.2-.7.5-1.3.9-1.8.5.3,1.2.7,2.2,1.1s2.2.6,3.8.6,2.8-.2,3.8-.5c1-.4,1.5-.9,1.5-1.7s0-.5-.2-.7c-.1-.2-.2-.3-.3-.5h0Z"/>
  <path class="st3" d="M900.7,109.2c-.5,0-1,0-1.5,0-.5,0-.9,0-1.3.2-.4.1-.7.3-.9.5-.2.2-.3.6-.3,1v.3c0,.1,0,.2,0,.3.6,0,1,0,1.4,0h1.2c1.6,0,3.3.1,5.1.4,1.7.2,3.4.7,5,1.2,1.6.6,3.2,1.3,4.6,2.3s2.7,2.1,3.8,3.5c1.1,1.4,1.9,3,2.5,4.8.6,1.8.9,3.9.9,6.3,0,3.5-.6,6.6-1.8,9.2s-3,4.8-5.2,6.5-5,3-8.2,3.9c-3.2.9-6.7,1.3-10.6,1.3s-6.9-.3-9.9-1-5.6-1.6-7.7-2.9-3.8-2.9-5-4.9c-1.2-2-1.8-4.2-1.8-6.9s.1-1.9.3-2.8c.2-.9.5-1.7.9-2.5s.8-1.4,1.2-2c.5-.6.9-1,1.4-1.3.8.7,1.8,1.4,3.1,2.1,1.3.7,2.7,1.3,4.3,1.9,1.6.5,3.4,1,5.3,1.3,1.9.3,3.9.5,6,.5s1.6-.1,1.9-.4c.3-.3.4-.6.4-1.1s0-.5-.2-.8c-.4,0-.6,0-.8,0h-.5c-3.2,0-6.2-.3-9.1-1s-5.4-1.8-7.5-3.2c-2.2-1.5-3.9-3.4-5.2-5.6-1.3-2.3-1.9-5-1.9-8.2s.5-5.2,1.6-7.7c1-2.4,2.6-4.6,4.8-6.4,2.1-1.8,4.8-3.3,8-4.4s7-1.6,11.3-1.6,4.2.1,6.1.4c2,.2,3.8.6,5.5,1,1.7.4,3.3,1,4.8,1.5,1.5.6,2.7,1.2,3.8,1.9.3.7.6,1.7.7,2.9s.2,2.3.2,3.3c0,2.3-.3,4.3-1,5.9-.7,1.6-1.4,2.8-2.3,3.7-.8-.4-1.6-.9-2.6-1.2s-2-.7-3.2-1c-1.2-.3-2.4-.5-3.7-.7s-2.6-.3-4-.3h0Z"/>
  <path class="st3" d="M514.9,246.2c-1.3,1.2-3.2,2.3-5.7,3.3s-5.4,1.5-8.9,1.5-3.6-.2-5.3-.6-3.2-1-4.5-1.9-2.3-1.9-3.1-3.2c-.8-1.3-1.2-2.8-1.2-4.5v-32.8h-11.4c-1.2-1.9-2.1-3.7-2.7-5.6-.6-1.9-.8-3.8-.8-5.9s.1-3,.4-4.2.6-2.4,1-3.4c.4-1,.9-1.9,1.5-2.6.5-.8,1.1-1.4,1.7-1.9h50.8c.9,1.5,1.7,3.3,2.3,5.5s1,4.4,1,6.6-.2,3.8-.7,5.3c-.5,1.5-1.1,2.7-2,3.6s-1.8,1.6-3,2.1c-1.2.4-2.4.7-3.8.7h-14.4c0,.3-.2.5-.2.8s0,.5.2.7c.1.2.4.4.8.5s1,.2,1.7.3,1.7,0,2.9,0h3.4v35.8h0Z"/>
  <path class="st3" d="M537.5,194.4c2,0,3.7.3,5.1,1s2.4,1.6,3.2,2.9c-.4.5-.8,1-1.2,1.7-.4.7-.7,1.4-1,2s-.5,1.3-.7,1.9-.2,1.1-.2,1.4.2.8.4,1.1.8.5,1.4.5c.6-2.5,1.5-4.6,2.6-6.3,1.1-1.7,2.4-3,3.9-4.1,1.5-1,3-1.7,4.7-2.2,1.7-.4,3.4-.6,5.1-.6s2.7,0,3.9.3,2.2.4,3.2.7,1.8.6,2.5,1,1.3.8,1.8,1.1c.5,1.4.9,2.9,1.1,4.5.2,1.6.3,3.2.3,4.7,0,2.8-.2,5-.7,6.9-.5,1.8-1,3.3-1.6,4.5-.5.3-1.2.5-2,.8-.8.3-1.7.5-2.6.7-.9.2-1.9.4-3,.5-1.1.1-2.1.2-3.1.2s-2,0-2.9-.1-1.6-.2-2.3-.3-1.3-.2-1.9-.4c-.6-.1-1.2-.3-1.7-.4-.3.3-.4.7-.4,1.2s.3.9.9,1.1,1.7.6,3.3.9v25.6c-1.1.8-2.2,1.4-3.4,1.8s-2.3.8-3.4,1.1-2.1.4-3.1.5c-1,0-1.9.1-2.8.1-1.8,0-3.5-.2-5.2-.5-1.6-.4-3-.9-4.2-1.6s-2.1-1.7-2.8-2.8-1-2.5-1-4v-26.2c-1-1.4-1.7-3-2.2-4.8-.5-1.8-.7-3.7-.7-5.6s.2-3.4.7-5.4c.5-2,1.2-3.7,2.2-5.2h7.5,0Z"/>
  <path class="st3" d="M622.6,224.9c0,2.3.2,4.3.7,5.8.5,1.5,1.4,2.7,2.8,3.6,0,.3,0,.6,0,1v.9c0,2.6-.4,4.8-1.2,6.7-.8,1.9-1.8,3.4-3.1,4.6-1.3,1.2-2.7,2.1-4.3,2.7-1.6.6-3.2.9-4.9.9s-2.3-.1-3.5-.4c-1.1-.3-2.2-.7-3.2-1.3s-1.9-1.3-2.7-2.2c-.8-.9-1.4-2-1.9-3.2-.6,0-1,.1-1.2.5s-.4.7-.4,1.2.2,1,.4,1.5.7,1.1,1.3,1.7c-1.1.8-2.5,1.3-4.2,1.7s-3.6.6-5.4.6c-3,0-5.7-.4-8.1-1.3-2.4-.9-4.5-2.1-6.3-3.8-1.8-1.7-3.1-3.7-4.1-6.1-1-2.4-1.4-5.1-1.4-8.3s.5-6,1.6-8.4c1-2.4,2.4-4.3,4.2-5.9,1.8-1.5,3.8-2.7,6.2-3.4,2.3-.8,4.8-1.1,7.4-1.1s2.2,0,3.1.1c.9,0,1.7.2,2.4.3.8.1,1.4.3,1.9.4,0-.3.2-.6.2-.9,0-.4-.2-.8-.7-1.1-.4-.3-1-.5-1.7-.7-.7-.1-1.6-.3-2.5-.3-.9,0-1.9-.1-2.9-.1-2.2,0-4.4.2-6.7.8-2.2.5-4.2,1.3-6,2.3-.7-1.3-1.3-2.9-1.7-4.8-.4-1.9-.7-3.9-.7-5.9s0-1.9.2-2.9.3-1.8.7-2.6c.8-.4,1.9-.9,3.3-1.4s2.9-1,4.6-1.4c1.8-.4,3.7-.8,5.8-1.1,2.1-.3,4.4-.5,6.8-.5,4.2,0,7.9.5,11.1,1.5,3.2,1,5.8,2.4,7.9,4.2s3.7,4.1,4.7,6.8c1.1,2.7,1.6,5.8,1.6,9.1v10h0ZM597.1,227.4c-.8,0-1.3.2-1.6.6-.3.4-.5.8-.5,1.4s.2,1.1.7,1.4c.5.3,1,.4,1.7.4,1.1,0,1.8-.3,2.4-.8s.8-1.5.8-3h-3.6,0Z"/>
  <path class="st3" d="M657.2,210c-.5,0-1,0-1.5,0-.5,0-.9,0-1.3.2-.4.1-.7.3-.9.5-.2.2-.3.6-.3,1v.3c0,.1,0,.2,0,.3.6,0,1,0,1.4,0h1.2c1.6,0,3.3.1,5.1.4,1.7.2,3.4.7,5,1.2s3.2,1.3,4.6,2.3,2.7,2.1,3.8,3.5c1.1,1.4,1.9,3,2.5,4.8.6,1.8.9,3.9.9,6.3,0,3.5-.6,6.6-1.8,9.2s-3,4.8-5.2,6.5-5,3-8.2,3.9c-3.2.9-6.7,1.3-10.6,1.3s-6.9-.3-9.9-1-5.6-1.6-7.7-2.9-3.8-2.9-5-4.9c-1.2-2-1.8-4.2-1.8-6.9s.1-1.9.3-2.8.5-1.7.9-2.5.8-1.4,1.2-2,.9-1,1.4-1.3c.8.7,1.8,1.4,3.1,2.1,1.3.7,2.7,1.3,4.3,1.9,1.6.5,3.4,1,5.3,1.3,1.9.3,3.9.5,6,.5s1.6-.1,1.9-.4c.3-.3.4-.6.4-1.1s0-.5-.2-.8c-.4,0-.6,0-.8,0h-.5c-3.2,0-6.2-.3-9.1-1s-5.4-1.8-7.5-3.2c-2.2-1.5-3.9-3.4-5.2-5.6-1.3-2.3-1.9-5-1.9-8.2s.5-5.2,1.6-7.7c1.1-2.4,2.6-4.6,4.8-6.4,2.1-1.8,4.8-3.3,8-4.4s7-1.6,11.3-1.6,4.2.1,6.1.4c2,.2,3.8.6,5.5,1,1.7.4,3.3,1,4.8,1.5,1.5.6,2.7,1.2,3.8,1.9.3.7.6,1.7.7,2.9.2,1.2.2,2.3.2,3.3,0,2.3-.3,4.3-1,5.9-.7,1.6-1.4,2.8-2.3,3.7-.8-.4-1.6-.9-2.6-1.2s-2.1-.7-3.2-1c-1.2-.3-2.4-.5-3.7-.7s-2.6-.3-3.9-.3h0Z"/>
  <path class="st3" d="M706.2,192.4c-1.6.1-3.1.4-4.5.9s-2.6,1-3.7,1.7-1.9,1.3-2.5,1.9-.9,1.2-.9,1.8.1.8.4,1,.6.4.9.5c.6-.7,1.3-1.4,2.3-2.1.9-.7,2-1.3,3.2-1.9s2.7-1,4.3-1.4,3.4-.5,5.4-.5,2.7.1,4.2.4,3.1.7,4.6,1.3c1.5.6,3,1.4,4.4,2.4s2.7,2.3,3.8,3.8c1.1,1.5,2,3.3,2.6,5.5.7,2.1,1,4.5,1,7.3s0,3.2,0,4.9c0,1.7,0,3.4,0,5,0,2.3.2,4.3.7,5.8.5,1.5,1.4,2.7,2.8,3.6,0,.3,0,.6,0,1v.9c0,2.4-.4,4.5-1.1,6.4s-1.7,3.4-2.9,4.7-2.7,2.2-4.3,2.8c-1.7.6-3.4.9-5.3.9s-3.8-.3-5.6-.8c-1.8-.6-3.4-1.5-4.7-2.8-1.4-1.3-2.4-2.9-3.2-5s-1.2-4.6-1.2-7.6,0-3.1.2-4.5c.1-1.4.2-2.8.4-4,.2-1.2.3-2.4.4-3.4.1-1,.2-2,.2-2.9,0-1.6-.2-2.7-.5-3.3-.3-.6-.9-.9-1.6-.9s-.9.1-1.4.4l.6,8.3c-.2,1-.3,2-.4,3.1-.1,1-.2,2-.3,2.9,0,.9-.1,1.8-.2,2.5,0,.8,0,1.4,0,1.8,0,2.6.2,4.8.8,6.6s1.1,3.2,1.7,4.5c-1.4,1.6-3.3,2.8-5.6,3.7-2.3.9-4.9,1.4-7.9,1.4s-3-.2-4.5-.7-2.9-1.1-4.1-2c-1.2-.9-2.2-2-3-3.4s-1.2-2.9-1.2-4.8v-59.4c1.5-.9,3.4-1.7,5.6-2.3s4.5-.9,6.8-.9,3.4.2,5,.6,3.1,1,4.3,1.8c1.3.8,2.3,1.8,3,3.1.8,1.3,1.2,2.8,1.2,4.6v4.8h0Z"/>
  <path class="st3" d="M749,194.4c2.3,0,4.2.4,5.8,1,1.5.7,2.8,1.6,3.7,2.7s1.6,2.4,2.1,3.8c.4,1.4.7,2.9.9,4.4,0,.8-.2,1.8-.3,3.1-.1,1.3-.2,2.8-.4,4.4-.1,1.6-.2,3.3-.3,5.1s0,3.6,0,5.4v1.2c0,.4,0,.8,0,1.1.2.1.4.2.6.2s.3,0,.5,0c.5,0,.9-.2,1.1-.6.2-.4.3-1,.3-1.6,0-2.9,0-5.7.2-8.5.2-2.8.4-5.4.6-7.9.2-2.5.5-4.7.8-6.7.3-2,.6-3.6.9-4.9,1.4-1.1,3.1-1.9,4.9-2.3,1.8-.5,3.8-.7,6-.7s4.2.3,5.9.8,3.1,1.2,4.2,2.1,2,1.8,2.6,2.9c.6,1.1.9,2.2.9,3.4s0,.9-.2,2-.3,2.6-.6,4.5c-.3,1.9-.6,4-1,6.5s-.9,5.2-1.5,8c-.6,2.9-1.2,5.9-1.9,9-.7,3.1-1.5,6.3-2.3,9.5-1.4,5.4-3.2,9.7-5.2,13.1-2.1,3.4-4.3,6-6.7,7.9s-5,3.2-7.7,4c-2.7.7-5.4,1.1-8.1,1.1s-5.2-.4-7.2-1.1c-2-.7-3.7-1.7-5-3-1.3-1.2-2.3-2.7-3-4.3-.7-1.6-1-3.3-1-5.1s.2-3.4.7-5c.5-1.6,1.3-3.2,2.4-4.9.3,0,.6-.1,1.1-.1.4,0,.9,0,1.2,0,1,0,2,0,2.9.2,1,.1,1.8.2,2.4.3l7.7,1.5c.4,0,.7.1,1.1.2.4,0,.7.1,1.1.1.6,0,1-.1,1.4-.4s.6-.8.6-1.7l-11.6-2.3c-1.2-.5-2.5-1.4-3.8-2.6-1.3-1.2-2.5-2.9-3.7-5.1s-2.2-4.9-3.1-8.1-1.7-7.1-2.1-11.6c-.9-1.2-1.7-2.7-2.3-4.4-.6-1.8-1-3.7-1-5.9s.2-3.7.7-5.6,1.2-3.6,2.3-5.2h12.6,0Z"/>
</svg>